<svg width="500" height="500" viewBox="0 0 500 500" fill="none" xmlns="http://www.w3.org/2000/svg">
<path d="M250 72C274.514 72 294.444 91.9555 294.444 116.5C294.444 141.045 274.514 161 250 161C225.486 161 205.556 141.045 205.556 116.5C205.556 91.9555 225.486 72 250 72ZM316.667 288.938C316.667 306.32 307.847 321.617 294.444 330.587V361.25H205.556V330.587C192.153 321.617 183.333 306.32 183.333 288.938V261.125C183.333 224.273 213.194 194.375 250 194.375C286.806 194.375 316.667 224.273 316.667 261.125V288.938ZM327.778 361.25V342.268C341.597 326.623 350 305.973 350 283.375V261.125C350 242.56 344.931 225.247 336.181 210.298C343.889 207.169 352.292 205.5 361.111 205.5C397.917 205.5 427.778 235.398 427.778 272.25V294.5C427.778 310.979 418.819 325.372 405.556 333.02V361.25H327.778ZM94.4444 333.02C81.1806 325.372 72.2222 310.979 72.2222 294.5V272.25C72.2222 235.398 102.083 205.5 138.889 205.5C147.708 205.5 156.111 207.238 163.819 210.298C155.069 225.177 150 242.56 150 261.125V283.375C150 305.973 158.403 326.554 172.222 342.268V361.25H94.4444V333.02ZM138.889 94.25C160.347 94.25 177.778 111.702 177.778 133.188C177.778 154.673 160.347 172.125 138.889 172.125C117.431 172.125 100 154.673 100 133.188C100 111.702 117.431 94.25 138.889 94.25ZM361.111 94.25C382.569 94.25 400 111.702 400 133.188C400 154.673 382.569 172.125 361.111 172.125C339.653 172.125 322.222 154.673 322.222 133.188C322.222 111.702 339.653 94.25 361.111 94.25ZM66.6667 394.625H433.333C442.569 394.625 450 402.065 450 411.312C450 420.56 442.569 428 433.333 428H66.6667C57.4306 428 50 420.56 50 411.312C50 402.065 57.4306 394.625 66.6667 394.625Z" fill="#E11D48"/>
</svg>
